REM DIRINDEX 1\8,1\2\11,1\3\12,1\3\14,1\5\15,1\5\16,1\6\17,1\6\18,1\4\19,1\4\20,1\4\21,1\4\22,1\7\23,1\7\24,1\7\25,1\2\9\26,1\2\9\27,1\2\10\28,1\2\10\29,1\2\10\30,1\2\10\31,1\2\10\32,1\3\13\33,1\3\13\34,1\3\13\35
REM DIRNAME cjc123,folder01,folder02,folder03,folder04,folder05,folder06,folder07,folder08,folder09,folder10,folder11,folder12,folder13,folder14,folder15,folder16,folder17,folder18,folder19,folder20,folder21,folder22,folder23,folder24,folder25,folder26,folder27,folder28,folder29,folder30,folder31,folder32,folder33,folder34
TITLE ""
FILE "106 106_UNIT5_SET4.mp3" MP3
  TRACK 01 AUDIO
    TITLE "14:cjc123_1864"
    INDEX 01 00:00:00
  TRACK 02 AUDIO
    TITLE "0:"
    INDEX 01 00:02:51
  TRACK 03 AUDIO
    TITLE "33:cjc123_1865"
    INDEX 01 00:03:21
  TRACK 04 AUDIO
    TITLE "0:"
    INDEX 01 00:04:42
  TRACK 05 AUDIO
    TITLE "34:cjc123_1866"
    INDEX 01 00:04:68
  TRACK 06 AUDIO
    TITLE "0:"
    INDEX 01 00:06:18
  TRACK 07 AUDIO
    TITLE "35:cjc123_1867"
    INDEX 01 00:06:65
  TRACK 08 AUDIO
    TITLE "0:"
    INDEX 01 00:12:22
  TRACK 09 AUDIO
    TITLE "33:cjc123_1868"
    INDEX 01 00:12:71
  TRACK 10 AUDIO
    TITLE "0:"
    INDEX 01 00:14:15
  TRACK 11 AUDIO
    TITLE "34:cjc123_1869"
    INDEX 01 00:14:31
  TRACK 12 AUDIO
    TITLE "0:"
    INDEX 01 00:15:46
  TRACK 13 AUDIO
    TITLE "35:cjc123_1870"
    INDEX 01 00:16:16
  TRACK 14 AUDIO
    TITLE "0:"
    INDEX 01 00:22:42
  TRACK 15 AUDIO
    TITLE "33:cjc123_1871"
    INDEX 01 00:23:28
  TRACK 16 AUDIO
    TITLE "0:"
    INDEX 01 00:24:45
  TRACK 17 AUDIO
    TITLE "34:cjc123_1872"
    INDEX 01 00:24:53
  TRACK 18 AUDIO
    TITLE "0:"
    INDEX 01 00:26:01
  TRACK 19 AUDIO
    TITLE "35:cjc123_1873"
    INDEX 01 00:26:48
  TRACK 20 AUDIO
    TITLE "0:"
    INDEX 01 00:30:54
  TRACK 21 AUDIO
    TITLE "33:cjc123_1874"
    INDEX 01 00:31:33
  TRACK 22 AUDIO
    TITLE "0:"
    INDEX 01 00:32:39
  TRACK 23 AUDIO
    TITLE "34:cjc123_1875"
    INDEX 01 00:32:60
  TRACK 24 AUDIO
    TITLE "0:"
    INDEX 01 00:33:69
  TRACK 25 AUDIO
    TITLE "35:cjc123_1876"
    INDEX 01 00:34:45
  TRACK 26 AUDIO
    TITLE "0:"
    INDEX 01 00:38:43
  TRACK 27 AUDIO
    TITLE "33:cjc123_1877"
    INDEX 01 00:39:17
  TRACK 28 AUDIO
    TITLE "0:"
    INDEX 01 00:40:30
  TRACK 29 AUDIO
    TITLE "34:cjc123_1878"
    INDEX 01 00:40:56
  TRACK 30 AUDIO
    TITLE "0:"
    INDEX 01 00:41:69
  TRACK 31 AUDIO
    TITLE "35:cjc123_1879"
    INDEX 01 00:42:37
  TRACK 32 AUDIO
    TITLE "0:"
    INDEX 01 00:48:12
  TRACK 33 AUDIO
    TITLE "33:cjc123_1880"
    INDEX 01 00:48:61
  TRACK 34 AUDIO
    TITLE "0:"
    INDEX 01 00:49:72
  TRACK 35 AUDIO
    TITLE "34:cjc123_1881"
    INDEX 01 00:50:15
  TRACK 36 AUDIO
    TITLE "0:"
    INDEX 01 00:51:18
  TRACK 37 AUDIO
    TITLE "35:cjc123_1882"
    INDEX 01 00:52:02
  TRACK 38 AUDIO
    TITLE "0:"
    INDEX 01 00:56:33
  TRACK 39 AUDIO
    TITLE "33:cjc123_1883"
    INDEX 01 00:57:23
  TRACK 40 AUDIO
    TITLE "0:"
    INDEX 01 00:58:28
  TRACK 41 AUDIO
    TITLE "34:cjc123_1884"
    INDEX 01 00:58:52
  TRACK 42 AUDIO
    TITLE "0:"
    INDEX 01 00:59:57
  TRACK 43 AUDIO
    TITLE "35:cjc123_1885"
    INDEX 01 01:00:35
  TRACK 44 AUDIO
    TITLE "0:"
    INDEX 01 01:05:58
  TRACK 45 AUDIO
    TITLE "33:cjc123_1886"
    INDEX 01 01:06:38
  TRACK 46 AUDIO
    TITLE "0:"
    INDEX 01 01:07:51
  TRACK 47 AUDIO
    TITLE "34:cjc123_1887"
    INDEX 01 01:08:01
  TRACK 48 AUDIO
    TITLE "0:"
    INDEX 01 01:09:16
  TRACK 49 AUDIO
    TITLE "35:cjc123_1888"
    INDEX 01 01:10:02
  TRACK 50 AUDIO
    TITLE "0:"
    INDEX 01 01:14:27
  TRACK 51 AUDIO
    TITLE "33:cjc123_1889"
    INDEX 01 01:14:74
  TRACK 52 AUDIO
    TITLE "0:"
    INDEX 01 01:16:03
  TRACK 53 AUDIO
    TITLE "34:cjc123_1890"
    INDEX 01 01:16:38
  TRACK 54 AUDIO
    TITLE "0:"
    INDEX 01 01:17:43
  TRACK 55 AUDIO
    TITLE "35:cjc123_1891"
    INDEX 01 01:18:13
  TRACK 56 AUDIO
    TITLE "0:"
    INDEX 01 01:24:04
  TRACK 57 AUDIO
    TITLE "33:cjc123_1892"
    INDEX 01 01:24:55
  TRACK 58 AUDIO
    TITLE "0:"
    INDEX 01 01:26:07
  TRACK 59 AUDIO
    TITLE "34:cjc123_1893"
    INDEX 01 01:26:23
  TRACK 60 AUDIO
    TITLE "0:"
    INDEX 01 01:27:40
  TRACK 61 AUDIO
    TITLE "35:cjc123_1894"
    INDEX 01 01:28:12
  TRACK 62 AUDIO
    TITLE "0:"
    INDEX 01 01:32:55
  TRACK 63 AUDIO
    TITLE "33:cjc123_1895"
    INDEX 01 01:33:44
  TRACK 64 AUDIO
    TITLE "0:"
    INDEX 01 01:34:63
  TRACK 65 AUDIO
    TITLE "34:cjc123_1896"
    INDEX 01 01:35:14
  TRACK 66 AUDIO
    TITLE "0:"
    INDEX 01 01:36:27
  TRACK 67 AUDIO
    TITLE "35:cjc123_1897"
    INDEX 01 01:36:70
  TRACK 68 AUDIO
    TITLE "0:"
    INDEX 01 01:41:73
  TRACK 69 AUDIO
    TITLE "33:cjc123_1898"
    INDEX 01 01:42:59
  TRACK 70 AUDIO
    TITLE "0:"
    INDEX 01 01:43:64
  TRACK 71 AUDIO
    TITLE "34:cjc123_1899"
    INDEX 01 01:44:03
  TRACK 72 AUDIO
    TITLE "0:"
    INDEX 01 01:45:06
  TRACK 73 AUDIO
    TITLE "35:cjc123_1900"
    INDEX 01 01:45:55
  TRACK 74 AUDIO
    TITLE "0:"
    INDEX 01 01:51:25
  TRACK 75 AUDIO
    TITLE "33:cjc123_1901"
    INDEX 01 01:51:74
  TRACK 76 AUDIO
    TITLE "0:"
    INDEX 01 01:53:06
  TRACK 77 AUDIO
    TITLE "34:cjc123_1902"
    INDEX 01 01:53:21
  TRACK 78 AUDIO
    TITLE "0:"
    INDEX 01 01:54:27
  TRACK 79 AUDIO
    TITLE "35:cjc123_1903"
    INDEX 01 01:55:03
  TRACK 80 AUDIO
    TITLE "0:"
    INDEX 01 01:59:69
  TRACK 81 AUDIO
    TITLE "33:cjc123_1904"
    INDEX 01 02:00:43
  TRACK 82 AUDIO
    TITLE "0:"
    INDEX 01 02:01:54
  TRACK 83 AUDIO
    TITLE "34:cjc123_1905"
    INDEX 01 02:02:24
  TRACK 84 AUDIO
    TITLE "0:"
    INDEX 01 02:03:45
  TRACK 85 AUDIO
    TITLE "35:cjc123_1906"
    INDEX 01 02:04:21
  TRACK 86 AUDIO
    TITLE "0:"
    INDEX 01 02:09:48
  TRACK 87 AUDIO
    TITLE "33:cjc123_1907"
    INDEX 01 02:10:34
  TRACK 88 AUDIO
    TITLE "0:"
    INDEX 01 02:11:61
  TRACK 89 AUDIO
    TITLE "34:cjc123_1908"
    INDEX 01 02:12:17
  TRACK 90 AUDIO
    TITLE "0:"
    INDEX 01 02:13:42
  TRACK 91 AUDIO
    TITLE "35:cjc123_1909"
    INDEX 01 02:14:18
  TRACK 92 AUDIO
    TITLE "0:"
    INDEX 01 02:19:54
